<svg width="34" height="34" viewBox="0 0 34 34" fill="none" xmlns="http://www.w3.org/2000/svg">
<mask id="mask0_7106_794" style="mask-type:luminance" maskUnits="userSpaceOnUse" x="0" y="0" width="34" height="34">
<path d="M34 0H0V34H34V0Z" fill="white"/>
</mask>
<g mask="url(#mask0_7106_794)">
<path d="M33.0404 16.3265C33.0404 15.6587 32.9691 14.9988 32.8242 14.3468C32.8175 14.2727 32.8169 14.198 32.8029 14.125C32.367 11.8257 31.469 9.7219 30.1189 7.8124C29.3612 6.7419 28.5008 5.7624 27.4849 4.92731C27.418 4.86329 27.3546 4.79533 27.2838 4.73692C24.4718 2.41855 21.2486 1.16558 17.6043 1.0145C16.5861 0.972381 15.5701 1.01731 14.5654 1.21163C14.4817 1.21837 14.3969 1.21837 14.3149 1.23353C12.1695 1.63846 10.1538 2.38092 8.3325 3.59964C4.4321 6.2089 2.01877 9.8196 1.22688 14.4479C0.693349 17.5666 1.10333 20.592 2.42482 23.4877C5.4216 30.0542 12.616 34.3888 20.4085 32.5916C26.6559 31.1505 30.6754 27.181 32.5305 21.0452C32.9944 19.5109 33.1196 17.9266 33.0404 16.3265ZM31.3595 20.7083C29.6617 26.174 26.1443 29.9076 20.5562 31.2679C14.3289 32.7831 9.1777 30.7495 5.234 25.7376C3.1903 23.1407 2.15749 20.1405 2.21814 16.8224C2.29396 12.6973 3.9041 9.213 6.8571 6.3622C8.8576 4.43084 11.2366 3.15933 13.9622 2.5584C13.9976 2.55053 14.0301 2.53144 14.0644 2.5174C14.0801 2.532 14.0964 2.54323 14.1133 2.55166C14.1284 2.53256 14.1447 2.51627 14.1621 2.50392C14.8327 2.41294 15.5005 2.29612 16.1778 2.25961C20.0299 2.05518 23.4311 3.21212 26.4156 5.6394C27.3776 6.4218 28.233 7.3159 28.9518 8.3133C30.4334 10.3711 31.4494 12.6367 31.7605 15.1847C31.8728 16.1013 31.8874 17.0184 31.8605 17.9384H31.8588C31.8588 17.9384 31.8537 17.9412 31.8509 17.9434C31.8537 17.9474 31.8565 17.9513 31.8599 17.9547C31.7582 18.8847 31.6381 19.8125 31.3595 20.7083Z" fill="white"/>
<path d="M29.4876 16.8248C25.4041 12.7732 21.3183 8.72399 17.2387 4.66849C17.0814 4.51236 17.0039 4.4854 16.8298 4.65951C13.8459 7.64119 10.8542 10.6149 7.86358 13.5904C6.78358 14.6648 5.70188 15.738 4.62078 16.8119C4.49208 16.8933 4.38658 16.9781 4.57468 17.1084C4.74038 17.2662 4.90608 17.4235 5.07168 17.5813C5.14698 17.6633 5.21888 17.7486 5.29748 17.8273C9.12888 21.6384 12.9631 25.4479 16.7894 29.2652C16.9781 29.4534 17.0691 29.491 17.2808 29.2787C19.4722 27.0805 21.6788 24.8969 23.8787 22.7066C24.7857 21.8035 25.6854 20.8937 26.5885 19.9867C27.5759 19.0179 28.5615 18.0474 29.5522 17.0826C29.6977 16.9405 29.5556 16.8927 29.4876 16.8248ZM17.6436 26.9822V24.4022C17.6425 23.476 17.6425 22.5494 17.6414 21.6233V21.6025C17.6408 21.1234 17.6408 20.6449 17.6397 20.1664V20.1462C17.6391 19.6143 17.6385 19.0825 17.6374 18.5506V18.545C17.6374 18.331 17.6369 18.1176 17.6363 17.9036V17.8806C17.6363 17.7397 17.6425 17.6548 17.8463 17.6554C19.8418 17.6616 21.8372 17.6627 23.8321 17.6633H23.8489C24.8402 17.6633 25.8315 17.6633 26.8227 17.6638C26.8575 17.6638 26.8924 17.67 26.9901 17.6784C23.8894 20.8089 20.7994 23.8798 17.6436 26.9822ZM17.6459 7.05819C17.7705 7.09579 17.8362 7.18739 17.9115 7.26089C18.9342 8.26289 19.9552 9.26699 20.9774 10.2695C21.0437 10.3347 21.1155 10.3937 21.1846 10.4554C21.2178 10.488 21.2509 10.52 21.284 10.552C21.4037 10.7026 21.5379 10.839 21.6923 10.9542C21.7109 11.0036 21.7446 11.0378 21.7945 11.0552C21.8198 11.112 21.8603 11.153 21.9175 11.1766C22.3758 11.6416 22.8296 12.1105 23.2924 12.5711C24.2915 13.564 25.2951 14.553 26.2965 15.5432C26.3184 15.5993 26.3571 15.6392 26.4133 15.6611C26.4318 15.7139 26.4672 15.7498 26.52 15.7684C26.5419 15.8251 26.5807 15.8644 26.6374 15.8863C26.6565 15.9385 26.6919 15.9739 26.7441 15.993C26.8059 16.0711 26.8677 16.1486 26.9283 16.225C26.8688 16.2997 26.798 16.2676 26.7385 16.2676C23.8096 16.2682 20.8802 16.2643 17.9514 16.2705C17.72 16.271 17.6357 16.2384 17.6369 15.9734C17.6414 14.4896 17.6419 13.0052 17.6408 11.5214V11.5057C17.6447 11.3018 17.6492 11.1002 17.6593 10.8963C17.6683 10.7059 17.6537 10.5133 17.6402 10.3201V10.3049C17.6391 9.27429 17.6374 8.24429 17.6369 7.21379C17.6369 7.16879 17.6419 7.12329 17.6459 7.05819ZM16.3058 7.16209C16.3406 7.22669 16.353 7.30079 16.3496 7.38959C16.3479 7.43279 16.3451 7.49119 16.3592 7.53609V8.16009C16.3171 8.22859 16.3491 8.32689 16.3491 8.40099C16.3429 10.9463 16.344 13.4916 16.344 16.0368C16.344 16.0784 16.3463 16.1194 16.3513 16.1587C16.3339 16.2306 16.2834 16.2733 16.1379 16.2727C13.2107 16.2637 10.2836 16.2665 7.35578 16.2665H7.14298C10.2005 13.1961 13.2141 10.1853 16.3058 7.16209ZM16.3603 26.7801C16.3603 26.8048 16.3519 26.8289 16.339 26.9036C13.2253 23.8546 10.1769 20.7915 7.09018 17.661H8.71668C11.1765 17.661 13.637 17.6621 16.0975 17.6593C16.2626 17.6593 16.367 17.6526 16.3665 17.8834C16.3575 20.8488 16.3609 23.8141 16.3603 26.7801Z" fill="white"/>
<path d="M12.58 26.5402C11.9724 26.5425 11.3641 26.5464 10.7565 26.5329C8.90419 26.4908 7.57429 25.1469 7.55129 23.2974C7.54399 22.6898 7.54899 22.0821 7.54679 21.4739C7.54679 21.3829 7.56479 21.2863 7.48729 21.2105C7.12899 20.8611 6.77229 20.5112 6.37299 20.1204C6.42239 21.3037 6.34489 22.4258 6.42019 23.5474C6.57689 25.873 8.32629 27.5938 10.6537 27.6663C11.7095 27.6989 12.7671 27.6758 13.824 27.677C13.8656 27.677 13.9189 27.6927 13.9459 27.6242C13.61 27.3069 13.2691 26.9895 12.9344 26.6655C12.8316 26.5655 12.7182 26.5397 12.58 26.5402Z" fill="white"/>
<path d="M21.5154 7.46408C22.1051 7.45738 22.6943 7.45458 23.2834 7.46638C24.9671 7.49898 26.3611 8.76148 26.5442 10.4368C26.6172 11.1068 26.5576 11.783 26.5678 12.4558C26.5689 12.5479 26.5369 12.6496 26.6003 12.7288C26.9328 13.1388 27.3203 13.4937 27.7185 13.852C27.7039 12.6159 27.8303 11.391 27.6455 10.1762C27.3473 8.21168 25.8214 6.64528 23.9433 6.39758C22.6898 6.23198 21.4267 6.37288 20.1681 6.32008C20.491 6.66218 20.7977 6.97778 21.0931 7.30298C21.2121 7.43378 21.3464 7.46638 21.5154 7.46408Z" fill="white"/>
<path d="M7.40021 12.8259C7.51311 12.7097 7.54851 12.5833 7.54571 12.4238C7.53611 11.8908 7.53561 11.3579 7.53951 10.8249C7.55471 8.91306 8.94921 7.50116 10.8626 7.46576C11.4422 7.45566 12.0218 7.46746 12.6014 7.46696C12.6845 7.46696 12.8002 7.48716 12.8457 7.44276C13.2107 7.08056 13.5629 6.70596 13.9111 6.34196C12.8086 6.34196 11.6949 6.29486 10.5863 6.35206C8.39151 6.46606 6.65831 8.15766 6.43031 10.3458C6.31011 11.5022 6.40901 12.6625 6.42521 13.8554C6.74991 13.5117 7.07111 13.1652 7.40021 12.8259Z" fill="white"/>
<path d="M27.7118 22.0231C27.7213 21.4031 27.714 20.7831 27.714 20.0928C27.358 20.4596 27.0232 20.7499 26.7424 21.0948C26.5801 21.1925 26.5414 21.3396 26.5408 21.5227C26.5397 22.2804 26.6127 23.0436 26.5099 23.7945C26.2976 25.3462 25.0373 26.465 23.4552 26.5301C22.792 26.5577 22.127 26.5358 21.4626 26.5369C21.3615 26.5374 21.2599 26.5195 21.1751 26.6076C20.8353 26.9598 20.491 27.308 20.1164 27.6904C21.3868 27.659 22.619 27.7387 23.8495 27.6365C24.0163 27.623 24.1831 27.5882 24.3465 27.5512C26.1825 27.1328 27.6343 25.4153 27.6562 23.6389C27.6668 23.6131 27.6781 23.5884 27.6781 23.5592V23.512C27.7539 23.0178 27.7045 22.519 27.7118 22.0231Z" fill="white"/>
</g>
</svg>
